ffmpeg started on 2016-12-02 at 07:03:51
Report written to "Output/x264/results/ffmpeg/old_town_cross_2160p50slower9000k.log"
Command line:
Tools/ffmpeg/ffmpeg -benchmark -y -i Input/y4m/old_town_cross_2160p50.y4m -c:v libx264 -preset slower -b:v 9000k -an Output/x264/encoded/old_town_cross_2160p50slower9000k.mkv
ffmpeg version N-82227-gdb23fde Copyright (c) 2000-2016 the FFmpeg developers
  built with gcc 5.4.0 (Ubuntu 5.4.0-6ubuntu1~16.04.2) 20160609
  configuration: --prefix=/home/jaroslav/ffmpeg_build --pkg-config-flags=--static --extra-cflags=-I/home/jaroslav/ffmpeg_build/include --extra-ldflags=-L/home/jaroslav/ffmpeg_build/lib --bindir=/home/jaroslav/bin --enable-gpl --enable-libass --enable-libfdk-aac --enable-libfreetype --enable-libmp3lame --enable-libopus --enable-libtheora --enable-libvorbis --enable-libvpx --enable-libx264 --enable-libx265 --enable-nvenc --enable-libmfx --enable-libxvid --enable-libgsm --enable-libopencore-amrnb --enable-version3 --enable-nonfree
  libavutil      55. 35.100 / 55. 35.100
  libavcodec     57. 66.101 / 57. 66.101
  libavformat    57. 57.100 / 57. 57.100
  libavdevice    57.  2.100 / 57.  2.100
  libavfilter     6. 66.100 /  6. 66.100
  libswscale      4.  3.100 /  4.  3.100
  libswresample   2.  4.100 /  2.  4.100
  libpostproc    54.  2.100 / 54.  2.100
Input #0, yuv4mpegpipe, from 'Input/y4m/old_town_cross_2160p50.y4m':
  Duration: 00:00:10.00, start: 0.000000, bitrate: 4976642 kb/s
    Stream #0:0: Video: rawvideo (I420 / 0x30323449), yuv420p(progressive), 3840x2160, SAR 1:1 DAR 16:9, 50 fps, 50 tbr, 50 tbn, 50 tbc
[libx264 @ 0x2bc2120] using SAR=1/1
[libx264 @ 0x2bc2120] DPB size (8 frames, 259200 mbs) > level limit (5 frames, 184320 mbs)
[libx264 @ 0x2bc2120] using cpu capabilities: MMX2 SSE2Fast SSSE3 SSE4.2 AVX FMA3 AVX2 LZCNT BMI2
[libx264 @ 0x2bc2120] profile High, level 5.2
[libx264 @ 0x2bc2120] 264 - core 148 - H.264/MPEG-4 AVC codec - Copyleft 2003-2016 - http://www.videolan.org/x264.html - options: cabac=1 ref=8 deblock=1:0:0 analyse=0x3:0x133 me=umh subme=9 psy=1 psy_rd=1.00:0.00 mixed_ref=1 me_range=16 chroma_me=1 trellis=2 8x8dct=1 cqm=0 deadzone=21,11 fast_pskip=1 chroma_qp_offset=-2 threads=6 lookahead_threads=1 sliced_threads=0 nr=0 decimate=1 interlaced=0 bluray_compat=0 constrained_intra=0 bframes=3 b_pyramid=2 b_adapt=2 b_bias=0 direct=3 weightb=1 open_gop=0 weightp=2 keyint=250 keyint_min=25 scenecut=40 intra_refresh=0 rc_lookahead=60 rc=abr mbtree=1 bitrate=9000 ratetol=1.0 qcomp=0.60 qpmin=0 qpmax=69 qpstep=4 ip_ratio=1.40 aq=1:1.00
Output #0, matroska, to 'Output/x264/encoded/old_town_cross_2160p50slower9000k.mkv':
  Metadata:
    encoder         : Lavf57.57.100
    Stream #0:0: Video: h264 (libx264) (H264 / 0x34363248), yuv420p, 3840x2160 [SAR 1:1 DAR 16:9], q=-1--1, 9000 kb/s, 50 fps, 1k tbn, 50 tbc
    Metadata:
      encoder         : Lavc57.66.101 libx264
    Side data:
      cpb: bitrate max/min/avg: 0/0/9000000 buffer size: 0 vbv_delay: -1
Stream mapping:
  Stream #0:0 -> #0:0 (rawvideo (native) -> h264 (libx264))
Press [q] to stop, [?] for help
frame=   62 fps=0.0 q=0.0 size=       0kB time=00:00:00.00 bitrate=N/A speed=   0x    frame=   67 fps= 17 q=0.0 size=       0kB time=00:00:00.00 bitrate=N/A speed=   0x    frame=   72 fps= 14 q=34.0 size=       1kB time=-00:00:00.01 bitrate=N/A speed=N/A    frame=   75 fps= 13 q=38.0 size=       1kB time=00:00:00.04 bitrate= 143.6kbits/s speed=0.00732x    frame=   78 fps= 13 q=44.0 size=       1kB time=00:00:00.10 bitrate=  58.3kbits/s speed=0.0164x    frame=   81 fps= 12 q=42.0 size=       1kB time=00:00:00.16 bitrate=  36.6kbits/s speed=0.0241x    frame=   85 fps= 12 q=40.0 size=       1kB time=00:00:00.24 bitrate=  24.4kbits/s speed=0.0328x    frame=   88 fps= 11 q=40.0 size=       1kB time=00:00:00.30 bitrate=  19.6kbits/s speed=0.038x    frame=   92 fps= 10 q=39.0 size=       1kB time=00:00:00.38 bitrate=  15.5kbits/s speed=0.043x    frame=   97 fps= 10 q=38.0 size=       1kB time=00:00:00.48 bitrate=  12.2kbits/s speed=0.0508x    frame=   99 fps=9.9 q=37.0 size=       1kB time=00:00:00.52 bitrate=  11.3kbits/s speed=0.0523x    frame=  100 fps=9.5 q=37.0 size=       1kB time=00:00:00.54 bitrate=  10.9kbits/s speed=0.0515x    frame=  103 fps=9.3 q=37.0 size=       1kB time=00:00:00.60 bitrate=   9.8kbits/s speed=0.0542x    frame=  107 fps=8.7 q=36.0 size=       1kB time=00:00:00.68 bitrate=   8.6kbits/s speed=0.0552x    frame=  112 fps=8.6 q=36.0 size=       1kB time=00:00:00.78 bitrate=   7.5kbits/s speed=0.06x    frame=  114 fps=8.3 q=36.0 size=       1kB time=00:00:00.82 bitrate=   7.2kbits/s speed=0.0601x    frame=  116 fps=8.1 q=36.0 size=       1kB time=00:00:00.86 bitrate=   6.8kbits/s speed=0.0602x    frame=  118 fps=7.9 q=36.0 size=       1kB time=00:00:00.90 bitrate=   6.5kbits/s speed=0.0602x    frame=  122 fps=7.7 q=35.0 size=       1kB time=00:00:00.98 bitrate=   6.0kbits/s speed=0.062x    frame=  125 fps=7.6 q=35.0 size=       1kB time=00:00:01.04 bitrate=   5.7kbits/s speed=0.0633x    frame=  126 fps=7.4 q=35.0 size=       1kB time=00:00:01.06 bitrate=   5.5kbits/s speed=0.062x    frame=  130 fps=7.2 q=35.0 size=       1kB time=00:00:01.14 bitrate=   5.2kbits/s speed=0.0631x    frame=  133 fps=7.1 q=35.0 size=       1kB time=00:00:01.20 bitrate=   4.9kbits/s speed=0.0641x    frame=  135 fps=6.9 q=35.0 size=       1kB time=00:00:01.24 bitrate=   4.7kbits/s speed=0.0639x    frame=  138 fps=6.8 q=35.0 size=       1kB time=00:00:01.30 bitrate=   4.5kbits/s speed=0.0643x    frame=  141 fps=6.6 q=35.0 size=       1kB time=00:00:01.36 bitrate=   4.3kbits/s speed=0.0639x    frame=  143 fps=6.6 q=35.0 size=       1kB time=00:00:01.40 bitrate=   4.2kbits/s speed=0.0642x    frame=  146 fps=6.4 q=35.0 size=       1kB time=00:00:01.46 bitrate=   4.0kbits/s speed=0.0644x    frame=  149 fps=6.4 q=35.0 size=       1kB time=00:00:01.52 bitrate=   3.9kbits/s speed=0.0652x    frame=  150 fps=6.3 q=35.0 size=       1kB time=00:00:01.54 bitrate=   3.8kbits/s speed=0.0645x    frame=  154 fps=6.2 q=35.0 size=       1kB time=00:00:01.62 bitrate=   3.6kbits/s speed=0.0654x    frame=  157 fps=6.1 q=35.0 size=       1kB time=00:00:01.68 bitrate=   3.5kbits/s speed=0.0656x    frame=  159 fps=6.0 q=34.0 size=       1kB time=00:00:01.72 bitrate=   3.4kbits/s speed=0.065x    frame=  162 fps=6.0 q=34.0 size=       1kB time=00:00:01.78 bitrate=   3.3kbits/s speed=0.066x    frame=  164 fps=5.9 q=34.0 size=       1kB time=00:00:01.82 bitrate=   3.2kbits/s speed=0.0658x    frame=  166 fps=5.9 q=34.0 size=       1kB time=00:00:01.86 bitrate=   3.2kbits/s speed=0.0656x    frame=  170 fps=5.8 q=34.0 size=       1kB time=00:00:01.94 bitrate=   3.0kbits/s speed=0.0663x    frame=  173 fps=5.7 q=34.0 size=       1kB time=00:00:02.00 bitrate=   2.9kbits/s speed=0.0664x    frame=  176 fps=5.7 q=34.0 size=       1kB time=00:00:02.06 bitrate=   2.9kbits/s speed=0.0662x    frame=  178 fps=5.6 q=34.0 size=       1kB time=00:00:02.10 bitrate=   2.8kbits/s speed=0.0664x    frame=  180 fps=5.6 q=34.0 size=       1kB time=00:00:02.14 bitrate=   2.8kbits/s speed=0.0664x    frame=  184 fps=5.5 q=34.0 size=       1kB time=00:00:02.22 bitrate=   2.7kbits/s speed=0.0668x    frame=  186 fps=5.5 q=34.0 size=       1kB time=00:00:02.26 bitrate=   2.6kbits/s speed=0.0668x    frame=  188 fps=5.5 q=34.0 size=       1kB time=00:00:02.30 bitrate=   2.6kbits/s speed=0.067x    frame=  191 fps=5.4 q=34.0 size=       1kB time=00:00:02.36 bitrate=   2.5kbits/s speed=0.0673x    frame=  192 fps=5.4 q=34.0 size=       1kB time=00:00:02.38 bitrate=   2.5kbits/s speed=0.0668x    frame=  196 fps=5.4 q=34.0 size=       1kB time=00:00:02.46 bitrate=   2.4kbits/s speed=0.0676x    frame=  198 fps=5.3 q=34.0 size=       1kB time=00:00:02.50 bitrate=   2.4kbits/s speed=0.0668x    frame=  201 fps=5.3 q=34.0 size=       1kB time=00:00:02.56 bitrate=   2.3kbits/s speed=0.0675x    frame=  204 fps=5.2 q=34.0 size=       1kB time=00:00:02.62 bitrate=   2.2kbits/s speed=0.0674x    frame=  206 fps=5.2 q=34.0 size=       1kB time=00:00:02.66 bitrate=   2.2kbits/s speed=0.0673x    frame=  209 fps=5.2 q=34.0 size=       1kB time=00:00:02.72 bitrate=   2.2kbits/s speed=0.0678x    frame=  211 fps=5.2 q=34.0 size=       1kB time=00:00:02.76 bitrate=   2.1kbits/s speed=0.0677x    frame=  213 fps=5.1 q=34.0 size=       1kB time=00:00:02.80 bitrate=   2.1kbits/s speed=0.0671x    frame=  217 fps=5.1 q=34.0 size=       1kB time=00:00:02.88 bitrate=   2.0kbits/s speed=0.068x    frame=  219 fps=5.0 q=34.0 size=       1kB time=00:00:02.92 bitrate=   2.0kbits/s speed=0.0673x    frame=  223 fps=5.0 q=34.0 size=       1kB time=00:00:03.00 bitrate=   2.0kbits/s speed=0.0679x    frame=  226 fps=5.0 q=34.0 size=       1kB time=00:00:03.06 bitrate=   1.9kbits/s speed=0.0675x    frame=  229 fps=5.0 q=34.0 size=       1kB time=00:00:03.12 bitrate=   1.9kbits/s speed=0.068x    frame=  231 fps=5.0 q=34.0 size=       1kB time=00:00:03.16 bitrate=   1.9kbits/s speed=0.0679x    frame=  233 fps=4.9 q=34.0 size=       1kB time=00:00:03.20 bitrate=   1.8kbits/s speed=0.0678x    frame=  235 fps=4.9 q=34.0 size=       1kB time=00:00:03.24 bitrate=   1.8kbits/s speed=0.0678x    frame=  239 fps=4.9 q=34.0 size=       1kB time=00:00:03.32 bitrate=   1.8kbits/s speed=0.0679x    frame=  243 fps=4.9 q=34.0 size=       1kB time=00:00:03.40 bitrate=   1.7kbits/s speed=0.0682x    frame=  246 fps=4.9 q=34.0 size=       1kB time=00:00:03.46 bitrate=   1.7kbits/s speed=0.0683x    frame=  247 fps=4.8 q=34.0 size=       1kB time=00:00:03.48 bitrate=   1.7kbits/s speed=0.068x    frame=  250 fps=4.8 q=34.0 size=       1kB time=00:00:03.54 bitrate=   1.7kbits/s speed=0.0682x    frame=  253 fps=4.8 q=34.0 size=       1kB time=00:00:03.60 bitrate=   1.6kbits/s speed=0.0687x    frame=  255 fps=4.8 q=34.0 size=       1kB time=00:00:03.64 bitrate=   1.6kbits/s speed=0.0683x    frame=  257 fps=4.8 q=34.0 size=       1kB time=00:00:03.68 bitrate=   1.6kbits/s speed=0.0683x    frame=  261 fps=4.7 q=34.0 size=       1kB time=00:00:03.76 bitrate=   1.6kbits/s speed=0.0683x    frame=  265 fps=4.7 q=34.0 size=       1kB time=00:00:03.84 bitrate=   1.5kbits/s speed=0.0682x    frame=  269 fps=4.7 q=34.0 size=       1kB time=00:00:03.92 bitrate=   1.5kbits/s speed=0.0686x    frame=  271 fps=4.7 q=34.0 size=       1kB time=00:00:03.96 bitrate=   1.5kbits/s speed=0.0683x    frame=  274 fps=4.7 q=34.0 size=       1kB time=00:00:04.02 bitrate=   1.5kbits/s speed=0.0687x    frame=  277 fps=4.6 q=34.0 size=       1kB time=00:00:04.08 bitrate=   1.4kbits/s speed=0.0683x    frame=  281 fps=4.6 q=34.0 size=       1kB time=00:00:04.16 bitrate=   1.4kbits/s speed=0.0686x    frame=  283 fps=4.6 q=34.0 size=       1kB time=00:00:04.20 bitrate=   1.4kbits/s speed=0.0687x    frame=  285 fps=4.6 q=34.0 size=       1kB time=00:00:04.24 bitrate=   1.4kbits/s speed=0.0685x    frame=  288 fps=4.6 q=34.0 size=       1kB time=00:00:04.30 bitrate=   1.4kbits/s speed=0.0688x    frame=  291 fps=4.6 q=34.0 size=       1kB time=00:00:04.36 bitrate=   1.4kbits/s speed=0.0687x    frame=  294 fps=4.6 q=34.0 size=       1kB time=00:00:04.42 bitrate=   1.3kbits/s speed=0.0689x    frame=  296 fps=4.6 q=34.0 size=       1kB time=00:00:04.46 bitrate=   1.3kbits/s speed=0.0687x    frame=  298 fps=4.5 q=34.0 size=       1kB time=00:00:04.50 bitrate=   1.3kbits/s speed=0.0687x    frame=  301 fps=4.5 q=34.0 size=       1kB time=00:00:04.56 bitrate=   1.3kbits/s speed=0.0689x    frame=  303 fps=4.5 q=34.0 size=       1kB time=00:00:04.60 bitrate=   1.3kbits/s speed=0.0689x    frame=  305 fps=4.5 q=34.0 size=       1kB time=00:00:04.64 bitrate=   1.3kbits/s speed=0.0689x    frame=  308 fps=4.5 q=34.0 size=       1kB time=00:00:04.70 bitrate=   1.3kbits/s speed=0.0688x    frame=  311 fps=4.5 q=34.0 size=       1kB time=00:00:04.76 bitrate=   1.2kbits/s speed=0.0692x    frame=  313 fps=4.5 q=34.0 size=       1kB time=00:00:04.80 bitrate=   1.2kbits/s speed=0.0691x    frame=  314 fps=4.5 q=34.0 size=       1kB time=00:00:04.82 bitrate=   1.2kbits/s speed=0.0688x    frame=  317 fps=4.5 q=35.0 size=    5133kB time=00:00:04.88 bitrate=8615.7kbits/s speed=0.069x    frame=  319 fps=4.5 q=35.0 size=    5133kB time=00:00:04.92 bitrate=8545.7kbits/s speed=0.069x    frame=  321 fps=4.5 q=35.0 size=    5202kB time=00:00:04.96 bitrate=8589.3kbits/s speed=0.0689x    frame=  326 fps=4.5 q=35.0 size=    5202kB time=00:00:05.06 bitrate=8419.6kbits/s speed=0.0696x    frame=  327 fps=4.4 q=35.0 size=    5202kB time=00:00:05.08 bitrate=8386.5kbits/s speed=0.0689x    frame=  332 fps=4.5 q=35.0 size=    5202kB time=00:00:05.18 bitrate=8224.6kbits/s speed=0.0695x    frame=  333 fps=4.4 q=35.0 size=    5202kB time=00:00:05.20 bitrate=8193.0kbits/s speed=0.0691x    frame=  335 fps=4.4 q=35.0 size=    5202kB time=00:00:05.24 bitrate=8130.4kbits/s speed=0.069x    frame=  339 fps=4.4 q=35.0 size=    5202kB time=00:00:05.32 bitrate=8008.2kbits/s speed=0.069x    frame=  343 fps=4.4 q=35.0 size=    5202kB time=00:00:05.40 bitrate=7889.6kbits/s speed=0.0692x    frame=  344 fps=4.4 q=35.0 size=    5202kB time=00:00:05.42 bitrate=7860.5kbits/s speed=0.0689x    frame=  348 fps=4.4 q=35.0 size=    5202kB time=00:00:05.50 bitrate=7746.2kbits/s speed=0.0694x    frame=  350 fps=4.4 q=35.0 size=    5202kB time=00:00:05.54 bitrate=7690.2kbits/s speed=0.069x    frame=  353 fps=4.4 q=35.0 size=    5202kB time=00:00:05.60 bitrate=7607.9kbits/s speed=0.0692x    frame=  356 fps=4.4 q=35.0 size=    5202kB time=00:00:05.66 bitrate=7527.2kbits/s speed=0.0694x    frame=  358 fps=4.4 q=35.0 size=    5202kB time=00:00:05.70 bitrate=7474.4kbits/s speed=0.0693x    frame=  360 fps=4.3 q=35.0 size=    5202kB time=00:00:05.74 bitrate=7422.3kbits/s speed=0.0691x    frame=  363 fps=4.3 q=35.0 size=    5202kB time=00:00:05.80 bitrate=7345.6kbits/s speed=0.0693x    frame=  366 fps=4.3 q=35.0 size=    5202kB time=00:00:05.86 bitrate=7270.4kbits/s speed=0.0693x    frame=  369 fps=4.3 q=35.0 size=    5202kB time=00:00:05.92 bitrate=7196.7kbits/s speed=0.0694x    frame=  372 fps=4.3 q=35.0 size=    5202kB time=00:00:05.98 bitrate=7124.5kbits/s speed=0.0695x    frame=  375 fps=4.3 q=35.0 size=    5202kB time=00:00:06.04 bitrate=7053.7kbits/s speed=0.0693x    frame=  379 fps=4.3 q=35.0 size=    5202kB time=00:00:06.12 bitrate=6961.6kbits/s speed=0.0695x    frame=  382 fps=4.3 q=35.0 size=    5202kB time=00:00:06.18 bitrate=6894.0kbits/s speed=0.0693x    frame=  385 fps=4.3 q=35.0 size=    5202kB time=00:00:06.24 bitrate=6827.7kbits/s speed=0.0695x    frame=  387 fps=4.3 q=35.0 size=    5202kB time=00:00:06.28 bitrate=6784.2kbits/s speed=0.0695x    frame=  389 fps=4.3 q=35.0 size=    5202kB time=00:00:06.32 bitrate=6741.3kbits/s speed=0.0693x    frame=  392 fps=4.3 q=35.0 size=    5202kB time=00:00:06.38 bitrate=6677.9kbits/s speed=0.0695x    frame=  395 fps=4.3 q=35.0 size=    5202kB time=00:00:06.44 bitrate=6615.7kbits/s speed=0.0693x    frame=  399 fps=4.2 q=35.0 size=    5202kB time=00:00:06.52 bitrate=6534.5kbits/s speed=0.0693x    frame=  403 fps=4.2 q=35.0 size=    5202kB time=00:00:06.60 bitrate=6455.3kbits/s speed=0.0693x    frame=  407 fps=4.2 q=35.0 size=    5202kB time=00:00:06.68 bitrate=6378.0kbits/s speed=0.0694x    frame=  411 fps=4.2 q=35.0 size=    5202kB time=00:00:06.76 bitrate=6302.6kbits/s speed=0.0694x    frame=  414 fps=4.2 q=35.0 size=    5202kB time=00:00:06.82 bitrate=6247.1kbits/s speed=0.0694x    frame=  418 fps=4.2 q=35.0 size=    5202kB time=00:00:06.90 bitrate=6174.7kbits/s speed=0.0696x    frame=  420 fps=4.2 q=35.0 size=    5202kB time=00:00:06.94 bitrate=6139.1kbits/s speed=0.0695x    frame=  422 fps=4.2 q=35.0 size=    5202kB time=00:00:06.98 bitrate=6103.9kbits/s speed=0.0694x    frame=  426 fps=4.2 q=35.0 size=    5202kB time=00:00:07.06 bitrate=6034.8kbits/s speed=0.0695x    frame=  430 fps=4.2 q=35.0 size=    5202kB time=00:00:07.14 bitrate=5967.2kbits/s speed=0.0695x    frame=  433 fps=4.2 q=35.0 size=    5202kB time=00:00:07.20 bitrate=5917.5kbits/s speed=0.0697x    frame=  434 fps=4.2 q=35.0 size=    5202kB time=00:00:07.22 bitrate=5901.1kbits/s speed=0.0694x    frame=  438 fps=4.2 q=35.0 size=    5202kB time=00:00:07.30 bitrate=5836.4kbits/s speed=0.0696x    frame=  440 fps=4.2 q=35.0 size=    5202kB time=00:00:07.34 bitrate=5804.6kbits/s speed=0.0695x    frame=  442 fps=4.2 q=35.0 size=    5202kB time=00:00:07.38 bitrate=5773.2kbits/s speed=0.0695x    frame=  444 fps=4.2 q=35.0 size=    5202kB time=00:00:07.42 bitrate=5742.0kbits/s speed=0.0696x    frame=  446 fps=4.2 q=35.0 size=    5202kB time=00:00:07.46 bitrate=5711.3kbits/s speed=0.0695x    frame=  448 fps=4.2 q=35.0 size=    5202kB time=00:00:07.50 bitrate=5680.8kbits/s speed=0.0696x    frame=  450 fps=4.1 q=35.0 size=    5202kB time=00:00:07.54 bitrate=5650.7kbits/s speed=0.0695x    frame=  453 fps=4.1 q=35.0 size=    5202kB time=00:00:07.60 bitrate=5606.1kbits/s speed=0.0695x    frame=  457 fps=4.1 q=35.0 size=    5202kB time=00:00:07.68 bitrate=5547.7kbits/s speed=0.0694x    frame=  461 fps=4.1 q=35.0 size=    5202kB time=00:00:07.76 bitrate=5490.5kbits/s speed=0.0698x    frame=  463 fps=4.1 q=35.0 size=    5202kB time=00:00:07.80 bitrate=5462.3kbits/s speed=0.0696x    frame=  467 fps=4.1 q=35.0 size=    5202kB time=00:00:07.88 bitrate=5406.9kbits/s speed=0.0697x    frame=  470 fps=4.1 q=35.0 size=    5202kB time=00:00:07.94 bitrate=5366.0kbits/s speed=0.0697x    frame=  472 fps=4.1 q=34.0 size=    5202kB time=00:00:07.98 bitrate=5339.1kbits/s speed=0.0697x    frame=  475 fps=4.1 q=34.0 size=    5202kB time=00:00:08.04 bitrate=5299.3kbits/s speed=0.0698x    frame=  477 fps=4.1 q=34.0 size=    5202kB time=00:00:08.08 bitrate=5273.1kbits/s speed=0.0698x    frame=  478 fps=4.1 q=34.0 size=    5202kB time=00:00:08.10 bitrate=5260.0kbits/s speed=0.0697x    frame=  480 fps=4.1 q=34.0 size=    5202kB time=00:00:08.14 bitrate=5234.2kbits/s speed=0.0697x    frame=  483 fps=4.1 q=34.0 size=    5202kB time=00:00:08.20 bitrate=5195.9kbits/s speed=0.0697x    frame=  486 fps=4.1 q=34.0 size=    5202kB time=00:00:08.26 bitrate=5158.2kbits/s speed=0.0698x    frame=  488 fps=4.1 q=34.0 size=    5202kB time=00:00:08.30 bitrate=5133.3kbits/s speed=0.0697x    frame=  491 fps=4.1 q=34.0 size=    5202kB time=00:00:08.36 bitrate=5096.5kbits/s speed=0.0698x    frame=  492 fps=4.1 q=34.0 size=    5202kB time=00:00:08.38 bitrate=5084.3kbits/s speed=0.0696x    frame=  497 fps=4.1 q=34.0 size=    5202kB time=00:00:08.48 bitrate=5024.4kbits/s speed=0.07x    frame=  498 fps=4.1 q=34.0 size=    5202kB time=00:00:08.50 bitrate=5012.5kbits/s speed=0.0697x    frame=  500 fps=3.6 q=-1.0 Lsize=   11036kB time=00:00:09.94 bitrate=9094.0kbits/s speed=0.071x    
video:11031kB audio:0kB subtitle:0kB other streams:0kB global headers:0kB muxing overhead: 0.040395%
bench: utime=542.824s
bench: maxrss=2609080kB
[libx264 @ 0x2bc2120] frame I:3     Avg QP:30.47  size:418941
[libx264 @ 0x2bc2120] frame P:138   Avg QP:32.78  size: 40450
[libx264 @ 0x2bc2120] frame B:359   Avg QP:34.75  size: 12413
[libx264 @ 0x2bc2120] consecutive B-frames:  1.0%  2.0% 23.4% 73.6%
[libx264 @ 0x2bc2120] mb I  I16..4: 24.2% 69.6%  6.2%
[libx264 @ 0x2bc2120] mb P  I16..4:  0.0%  0.1%  0.0%  P16..4: 36.7%  1.8%  5.9%  0.0%  0.0%    skip:55.6%
[libx264 @ 0x2bc2120] mb B  I16..4:  0.0%  0.0%  0.0%  B16..8: 45.5%  0.1%  0.0%  direct: 0.0%  skip:54.4%  L0:48.7% L1:51.3% BI: 0.0%
[libx264 @ 0x2bc2120] final ratefactor: 26.65
[libx264 @ 0x2bc2120] 8x8 transform intra:69.1% inter:69.6%
[libx264 @ 0x2bc2120] direct mvs  spatial:99.2% temporal:0.8%
[libx264 @ 0x2bc2120] coded y,uvDC,uvAC intra: 85.9% 70.5% 48.9% inter: 2.5% 3.5% 0.0%
[libx264 @ 0x2bc2120] i16 v,h,dc,p: 14% 27% 17% 41%
[libx264 @ 0x2bc2120] i8 v,h,dc,ddl,ddr,vr,hd,vl,hu:  4%  6%  1% 14% 20% 14% 19%  9% 12%
[libx264 @ 0x2bc2120] i4 v,h,dc,ddl,ddr,vr,hd,vl,hu:  3%  4%  1% 15% 18% 14% 20% 11% 15%
[libx264 @ 0x2bc2120] i8c dc,h,v,p: 43% 31% 15% 11%
[libx264 @ 0x2bc2120] Weighted P-Frames: Y:0.7% UV:0.0%
[libx264 @ 0x2bc2120] ref P L0: 60.1% 20.6% 10.7%  2.1%  2.1%  1.7%  2.0%  0.7%  0.0%
[libx264 @ 0x2bc2120] ref B L0: 80.3%  7.6%  6.7%  1.8%  1.7%  1.4%  0.6%
[libx264 @ 0x2bc2120] ref B L1: 96.4%  3.6%
[libx264 @ 0x2bc2120] kb/s:9036.12
